<svg xmlns="http://www.w3.org/2000/svg" viewBox="0 0 100 100" fill="none">
  <!-- Background circle -->
  <circle cx="50" cy="50" r="50" fill="#1e40af"/>
  
  <!-- Calculator icon representing Analytica -->
  <rect x="25" y="20" width="50" height="60" rx="4" fill="white" stroke="#1e40af" stroke-width="2"/>
  
  <!-- Display screen -->
  <rect x="30" y="25" width="40" height="15" rx="2" fill="#f0f0f0"/>
  
  <!-- Numbers on display -->
  <text x="68" y="35" font-size="10" font-weight="bold" fill="#1e40af" text-anchor="end">123</text>
  
  <!-- Button grid (3x3) -->
  <g stroke="#1e40af" stroke-width="1" fill="none">
    <!-- Row 1 -->
    <rect x="30" y="45" width="9" height="8" rx="1"/>
    <rect x="40" y="45" width="9" height="8" rx="1"/>
    <rect x="50" y="45" width="9" height="8" rx="1"/>
    
    <!-- Row 2 -->
    <rect x="30" y="55" width="9" height="8" rx="1"/>
    <rect x="40" y="55" width="9" height="8" rx="1"/>
    <rect x="50" y="55" width="9" height="8" rx="1"/>
    
    <!-- Row 3 -->
    <rect x="30" y="65" width="9" height="8" rx="1"/>
    <rect x="40" y="65" width="9" height="8" rx="1"/>
    <rect x="50" y="65" width="9" height="8" rx="1"/>
  </g>
  
  <!-- Button symbols -->
  <text x="34.5" y="50" font-size="6" font-weight="bold" fill="#1e40af" text-anchor="middle">7</text>
  <text x="44.5" y="50" font-size="6" font-weight="bold" fill="#1e40af" text-anchor="middle">8</text>
  <text x="54.5" y="50" font-size="6" font-weight="bold" fill="#1e40af" text-anchor="middle">9</text>
  
  <text x="34.5" y="60" font-size="6" font-weight="bold" fill="#1e40af" text-anchor="middle">4</text>
  <text x="44.5" y="60" font-size="6" font-weight="bold" fill="#1e40af" text-anchor="middle">5</text>
  <text x="54.5" y="60" font-size="6" font-weight="bold" fill="#1e40af" text-anchor="middle">6</text>
  
  <text x="34.5" y="70" font-size="6" font-weight="bold" fill="#1e40af" text-anchor="middle">1</text>
  <text x="44.5" y="70" font-size="6" font-weight="bold" fill="#1e40af" text-anchor="middle">2</text>
  <text x="54.5" y="70" font-size="6" font-weight="bold" fill="#1e40af" text-anchor="middle">3</text>
</svg>
